<mxfile host="65bd71144e">
    <diagram id="R-31XSG-8bFbzHaBIaql" name="Page-1">
        <mxGraphModel dx="594" dy="1730" grid="1" gridSize="10" guides="1" tooltips="1" connect="1" arrows="1" fold="1" page="1" pageScale="1" pageWidth="827" pageHeight="1169" math="0" shadow="0">
            <root>
                <mxCell id="0"/>
                <mxCell id="1" parent="0"/>
                <mxCell id="34" style="edgeStyle=none;html=1;" parent="1" source="2" target="33" edge="1">
                    <mxGeometry relative="1" as="geometry"/>
                </mxCell>
                <mxCell id="2" value="start" style="ellipse;whiteSpace=wrap;html=1;" parent="1" vertex="1">
                    <mxGeometry x="245" y="-220" width="110" height="60" as="geometry"/>
                </mxCell>
                <mxCell id="57" style="edgeStyle=none;html=1;" parent="1" source="33" target="55" edge="1">
                    <mxGeometry relative="1" as="geometry"/>
                </mxCell>
                <mxCell id="33" value="get number of &lt;br&gt;rows" style="shape=parallelogram;perimeter=parallelogramPerimeter;whiteSpace=wrap;html=1;fixedSize=1;" parent="1" vertex="1">
                    <mxGeometry x="240" y="-130" width="120" height="60" as="geometry"/>
                </mxCell>
                <mxCell id="58" style="edgeStyle=none;html=1;" parent="1" source="55" edge="1">
                    <mxGeometry relative="1" as="geometry">
                        <mxPoint x="300" y="60" as="targetPoint"/>
                    </mxGeometry>
                </mxCell>
                <mxCell id="55" value="get number of &lt;br&gt;collums" style="shape=parallelogram;perimeter=parallelogramPerimeter;whiteSpace=wrap;html=1;fixedSize=1;" parent="1" vertex="1">
                    <mxGeometry x="240" y="-40" width="120" height="60" as="geometry"/>
                </mxCell>
                <mxCell id="61" style="edgeStyle=elbowEdgeStyle;html=1;entryX=0.5;entryY=0;entryDx=0;entryDy=0;elbow=vertical;rounded=0;exitX=1;exitY=0.5;exitDx=0;exitDy=0;" parent="1" edge="1" source="89">
                    <mxGeometry relative="1" as="geometry">
                        <Array as="points">
                            <mxPoint x="440" y="115"/>
                        </Array>
                        <mxPoint x="360" y="100" as="sourcePoint"/>
                        <mxPoint x="535" y="180" as="targetPoint"/>
                    </mxGeometry>
                </mxCell>
                <mxCell id="62" style="edgeStyle=none;html=1;exitX=0.5;exitY=1;exitDx=0;exitDy=0;entryX=0.5;entryY=0;entryDx=0;entryDy=0;" parent="1" source="98" edge="1" target="77">
                    <mxGeometry relative="1" as="geometry">
                        <mxPoint x="535" y="300" as="targetPoint"/>
                        <mxPoint x="535" y="250" as="sourcePoint"/>
                    </mxGeometry>
                </mxCell>
                <mxCell id="73" style="edgeStyle=none;html=1;entryX=0.5;entryY=0;entryDx=0;entryDy=0;startArrow=none;" parent="1" target="70" edge="1">
                    <mxGeometry relative="1" as="geometry">
                        <mxPoint x="305" y="270" as="sourcePoint"/>
                    </mxGeometry>
                </mxCell>
                <mxCell id="74" style="edgeStyle=elbowEdgeStyle;html=1;entryX=1;entryY=0.5;entryDx=0;entryDy=0;exitX=1;exitY=0.5;exitDx=0;exitDy=0;rounded=0;" parent="1" source="70" target="95" edge="1">
                    <mxGeometry relative="1" as="geometry">
                        <Array as="points">
                            <mxPoint x="400" y="220"/>
                            <mxPoint x="400" y="270"/>
                        </Array>
                        <mxPoint x="367.5" y="235" as="targetPoint"/>
                    </mxGeometry>
                </mxCell>
                <mxCell id="70" value="&lt;span class=&quot;pl-s1&quot; style=&quot;text-align: left ; box-sizing: border-box ; color: rgb(36 , 41 , 47) ; background-color: rgb(255 , 255 , 255)&quot;&gt;&lt;span class=&quot;pl-token&quot; style=&quot;box-sizing: border-box&quot;&gt;total&lt;/span&gt;&lt;/span&gt;&lt;span style=&quot;text-align: left ; color: rgb(36 , 41 , 47) ; background-color: rgb(255 , 255 , 255)&quot;&gt;&amp;nbsp;&lt;/span&gt;&lt;span class=&quot;pl-c1&quot; style=&quot;text-align: left ; box-sizing: border-box ; background-color: rgb(255 , 255 , 255)&quot;&gt;+=&lt;/span&gt;&lt;span style=&quot;text-align: left ; color: rgb(36 , 41 , 47) ; background-color: rgb(255 , 255 , 255)&quot;&gt;&amp;nbsp;&lt;br&gt;&lt;/span&gt;&lt;span class=&quot;pl-s1&quot; style=&quot;text-align: left ; box-sizing: border-box ; color: rgb(36 , 41 , 47) ; background-color: rgb(255 , 255 , 255)&quot;&gt;&lt;span class=&quot;pl-token&quot; style=&quot;box-sizing: border-box&quot;&gt;single_element&lt;/span&gt;&lt;/span&gt;" style="rounded=0;whiteSpace=wrap;html=1;" parent="1" vertex="1">
                    <mxGeometry x="245" y="340" width="120" height="60" as="geometry"/>
                </mxCell>
                <mxCell id="72" value="False" style="text;html=1;align=center;verticalAlign=middle;resizable=0;points=[];autosize=1;strokeColor=none;fillColor=none;" parent="1" vertex="1">
                    <mxGeometry x="140" y="170" width="50" height="20" as="geometry"/>
                </mxCell>
                <mxCell id="75" value="True" style="text;html=1;align=center;verticalAlign=middle;resizable=0;points=[];autosize=1;strokeColor=none;fillColor=none;" parent="1" vertex="1">
                    <mxGeometry x="245" y="300" width="40" height="20" as="geometry"/>
                </mxCell>
                <mxCell id="76" value="False" style="text;html=1;align=center;verticalAlign=middle;resizable=0;points=[];autosize=1;strokeColor=none;fillColor=none;" parent="1" vertex="1">
                    <mxGeometry x="369" y="70" width="50" height="20" as="geometry"/>
                </mxCell>
                <mxCell id="79" style="edgeStyle=none;html=1;" parent="1" source="77" target="78" edge="1">
                    <mxGeometry relative="1" as="geometry"/>
                </mxCell>
                <mxCell id="77" value="return average" style="shape=parallelogram;perimeter=parallelogramPerimeter;whiteSpace=wrap;html=1;fixedSize=1;" parent="1" vertex="1">
                    <mxGeometry x="472.5" y="290" width="120" height="60" as="geometry"/>
                </mxCell>
                <mxCell id="78" value="stop" style="ellipse;whiteSpace=wrap;html=1;" parent="1" vertex="1">
                    <mxGeometry x="477.5" y="390" width="110" height="60" as="geometry"/>
                </mxCell>
                <mxCell id="87" style="edgeStyle=elbowEdgeStyle;html=1;entryX=0;entryY=0.5;entryDx=0;entryDy=0;exitX=0;exitY=0.5;exitDx=0;exitDy=0;rounded=0;" parent="1" source="95" target="89" edge="1">
                    <mxGeometry relative="1" as="geometry">
                        <Array as="points">
                            <mxPoint x="200" y="160"/>
                        </Array>
                        <mxPoint x="242.5" y="235" as="sourcePoint"/>
                        <mxPoint x="234" y="95" as="targetPoint"/>
                    </mxGeometry>
                </mxCell>
                <mxCell id="96" style="edgeStyle=none;html=1;" edge="1" parent="1" source="89" target="95">
                    <mxGeometry relative="1" as="geometry"/>
                </mxCell>
                <mxCell id="89" value="&lt;span class=&quot;pl-k&quot; style=&quot;font-family: &amp;#34;helvetica&amp;#34; ; box-sizing: border-box&quot;&gt;for&lt;/span&gt;&lt;span style=&quot;font-family: &amp;#34;helvetica&amp;#34; ; color: rgb(36 , 41 , 47)&quot;&gt;&amp;nbsp;&lt;/span&gt;&lt;span class=&quot;pl-s1&quot; style=&quot;font-family: &amp;#34;helvetica&amp;#34; ; box-sizing: border-box ; color: rgb(36 , 41 , 47)&quot;&gt;row_value&lt;/span&gt;&lt;span style=&quot;font-family: &amp;#34;helvetica&amp;#34; ; color: rgb(36 , 41 , 47)&quot;&gt;&amp;nbsp;&lt;/span&gt;&lt;span class=&quot;pl-c1&quot; style=&quot;font-family: &amp;#34;helvetica&amp;#34; ; box-sizing: border-box&quot;&gt;in&lt;/span&gt;&lt;span style=&quot;font-family: &amp;#34;helvetica&amp;#34; ; color: rgb(36 , 41 , 47)&quot;&gt;&amp;nbsp;&lt;br&gt;&lt;/span&gt;&lt;span class=&quot;pl-s1&quot; style=&quot;font-family: &amp;#34;helvetica&amp;#34; ; box-sizing: border-box ; color: rgb(36 , 41 , 47)&quot;&gt;passed_in_2D_list&lt;/span&gt;" style="rhombus;whiteSpace=wrap;html=1;" vertex="1" parent="1">
                    <mxGeometry x="240" y="60" width="120" height="110" as="geometry"/>
                </mxCell>
                <mxCell id="95" value="&lt;span class=&quot;pl-k&quot; style=&quot;font-family: &amp;#34;helvetica&amp;#34; ; box-sizing: border-box&quot;&gt;for&lt;/span&gt;&lt;span style=&quot;font-family: &amp;#34;helvetica&amp;#34; ; color: rgb(36 , 41 , 47)&quot;&gt;&amp;nbsp;single_element in&amp;nbsp;&lt;/span&gt;&lt;span class=&quot;pl-s1&quot; style=&quot;font-family: &amp;#34;helvetica&amp;#34; ; box-sizing: border-box ; color: rgb(36 , 41 , 47)&quot;&gt;row_value:&lt;/span&gt;" style="rhombus;whiteSpace=wrap;html=1;" vertex="1" parent="1">
                    <mxGeometry x="240" y="200" width="120" height="110" as="geometry"/>
                </mxCell>
                <mxCell id="98" value="&lt;span class=&quot;pl-s1&quot; style=&quot;font-family: &amp;#34;helvetica&amp;#34; ; box-sizing: border-box ; color: rgb(36 , 41 , 47)&quot;&gt;average&lt;/span&gt;&lt;span style=&quot;font-family: &amp;#34;helvetica&amp;#34; ; color: rgb(36 , 41 , 47)&quot;&gt;&amp;nbsp;&lt;/span&gt;&lt;span class=&quot;pl-c1&quot; style=&quot;font-family: &amp;#34;helvetica&amp;#34; ; box-sizing: border-box&quot;&gt;=&lt;/span&gt;&lt;span style=&quot;font-family: &amp;#34;helvetica&amp;#34; ; color: rgb(36 , 41 , 47)&quot;&gt;&amp;nbsp;&lt;/span&gt;&lt;span class=&quot;pl-s1&quot; style=&quot;font-family: &amp;#34;helvetica&amp;#34; ; box-sizing: border-box ; color: rgb(36 , 41 , 47)&quot;&gt;total&lt;/span&gt;&lt;span style=&quot;font-family: &amp;#34;helvetica&amp;#34; ; color: rgb(36 , 41 , 47)&quot;&gt;&amp;nbsp;&lt;/span&gt;&lt;span class=&quot;pl-c1&quot; style=&quot;font-family: &amp;#34;helvetica&amp;#34; ; box-sizing: border-box&quot;&gt;/&lt;/span&gt;&lt;span style=&quot;font-family: &amp;#34;helvetica&amp;#34; ; color: rgb(36 , 41 , 47)&quot;&gt;&amp;nbsp; (&lt;/span&gt;&lt;span class=&quot;pl-en&quot; style=&quot;font-family: &amp;#34;helvetica&amp;#34; ; box-sizing: border-box&quot;&gt;len&lt;/span&gt;&lt;span style=&quot;font-family: &amp;#34;helvetica&amp;#34; ; color: rgb(36 , 41 , 47)&quot;&gt;(&lt;/span&gt;&lt;span class=&quot;pl-s1&quot; style=&quot;font-family: &amp;#34;helvetica&amp;#34; ; box-sizing: border-box ; color: rgb(36 , 41 , 47)&quot;&gt;passed_&lt;br&gt;in_2D_list&lt;/span&gt;&lt;span style=&quot;font-family: &amp;#34;helvetica&amp;#34; ; color: rgb(36 , 41 , 47)&quot;&gt;)&amp;nbsp;&lt;/span&gt;&lt;span class=&quot;pl-c1&quot; style=&quot;font-family: &amp;#34;helvetica&amp;#34; ; box-sizing: border-box&quot;&gt;*&lt;/span&gt;&lt;span style=&quot;font-family: &amp;#34;helvetica&amp;#34; ; color: rgb(36 , 41 , 47)&quot;&gt;&amp;nbsp;&lt;br&gt;&lt;/span&gt;&lt;span class=&quot;pl-en&quot; style=&quot;font-family: &amp;#34;helvetica&amp;#34; ; box-sizing: border-box&quot;&gt;len&lt;/span&gt;&lt;span style=&quot;font-family: &amp;#34;helvetica&amp;#34; ; color: rgb(36 , 41 , 47)&quot;&gt;(&lt;/span&gt;&lt;span class=&quot;pl-s1&quot; style=&quot;font-family: &amp;#34;helvetica&amp;#34; ; box-sizing: border-box ; color: rgb(36 , 41 , 47)&quot;&gt;row_value&lt;/span&gt;&lt;span style=&quot;font-family: &amp;#34;helvetica&amp;#34; ; color: rgb(36 , 41 , 47)&quot;&gt;))&lt;/span&gt;" style="shape=parallelogram;perimeter=parallelogramPerimeter;whiteSpace=wrap;html=1;fixedSize=1;" vertex="1" parent="1">
                    <mxGeometry x="450" y="180" width="165" height="60" as="geometry"/>
                </mxCell>
            </root>
        </mxGraphModel>
    </diagram>
</mxfile>